Coordinates
version=1
nRows=16
nColumns=40
inDegrees=yes

Units are S.I. units (second, meters, Newtons, ...)
Angles are in degrees.

endheader
time	pelvis_tilt	pelvis_list	pelvis_rotation	pelvis_tx	pelvis_ty	pelvis_tz	hip_flexion_r	hip_adduction_r	hip_rotation_r	knee_angle_r	knee_angle_r_beta	ankle_angle_r	subtalar_angle_r	mtp_angle_r	hip_flexion_l	hip_adduction_l	hip_rotation_l	knee_angle_l	knee_angle_l_beta	ankle_angle_l	subtalar_angle_l	mtp_angle_l	lumbar_extension	lumbar_bending	lumbar_rotation	arm_flex_r	arm_add_r	arm_rot_r	elbow_flex_r	pro_sup_r	wrist_flex_r	wrist_dev_r	arm_flex_l	arm_add_l	arm_rot_l	elbow_flex_l	pro_sup_l	wrist_flex_l	wrist_dev_l
     17.88000000	     -5.36155301	     -3.41799824	      2.18949316	      1.02000481	      0.92119425	      0.46839835	     24.19216039	     -0.46513673	    -15.26302770	     20.77430273	     20.77430273	      4.77477446	     -1.38024574	     -1.78152180	      5.18461267	     -9.45416244	     -7.08333836	     39.11552676	     39.11552676	     10.33412352	    -10.44743273	    -12.25175281	    -10.76377138	      4.68010271	      2.05026385	    -10.59044065	    -11.88315039	    -11.37289015	     24.09437666	     46.60000250	      0.00000000	      0.00000000	     13.49584794	    -15.92171734	     -3.13205064	     86.56294932	     47.87349245	      0.00000000	      0.00000000
     17.89171429	     -5.50167697	     -3.53863446	      2.60196189	      1.02011248	      0.92234255	      0.47021906	     23.42228768	     -0.28129488	    -15.84915038	     20.21369410	     20.21369410	      5.21944085	     -0.83846767	     -1.96273616	      7.68927648	     -9.81505032	     -5.62605416	     43.45519347	     43.45519347	      8.21554005	    -12.77613286	    -11.53158767	    -10.67440445	      4.88565304	      1.97745532	     -9.03739280	    -11.92660481	    -10.99683935	     24.83134317	     46.55030288	      0.00000000	      0.00000000	     12.30220784	    -15.41122662	     -2.93538298	     84.12950969	     47.81333265	      0.00000000	      0.00000000
     17.90342857	     -5.52582433	     -3.55603499	      2.95126055	      1.02001128	      0.92355754	      0.47189573	     22.57712117	     -0.21225062	    -16.47933784	     19.72168181	     19.72168181	      5.49120909	     -0.15888617	     -2.55630787	     10.26376203	     -9.91663047	     -4.16866645	     48.02908108	     48.02908108	      7.78281009	    -13.97702165	     -6.71455064	    -10.67701366	      4.98629538	      2.57556171	     -8.08200499	    -12.36677331	     -7.86010936	     26.51097321	     46.23592780	      0.00000000	      0.00000000	     12.39669913	    -14.33931986	     -2.27423063	     79.24825324	     47.71848881	      0.00000000	      0.00000000
     17.91514286	     -5.50869977	     -3.84955397	      3.33647587	      1.01967530	      0.92444766	      0.47369482	     21.74298829	      0.19400083	    -17.02404514	     19.26403440	     19.26403440	      5.85498950	      0.18769556	     -2.67331211	     12.80212514	    -10.40698614	     -2.96764643	     52.15168806	     52.15168806	      6.04704428	    -15.30548038	     -6.10418230	    -10.88275466	      5.34230258	      2.72678343	     -6.24248697	    -12.50654798	     -7.72971885	     27.29507658	     46.20973590	      0.00000000	      0.00000000	     11.19480981	    -13.78774040	     -1.89740954	     77.70399064	     47.66076542	      0.00000000	      0.00000000
     17.92685714	     -5.65316879	     -3.94028081	      3.77544690	      1.01909602	      0.92522359	      0.47512778	     20.99694442	      0.35018051	    -17.67732341	     18.62015803	     18.62015803	      5.99235380	      0.77267717	     -3.32440455	     15.78896489	    -10.37572595	     -1.49149341	     56.53329500	     56.53329500	      7.19431476	    -15.29451596	      1.12728392	    -10.70145952	      5.50226244	      3.03007074	     -4.93965391	    -12.97997270	     -5.67050812	     28.61435071	     46.02815147	      0.00000000	      0.00000000	     11.22521437	    -12.99723140	     -1.27590292	     72.17033119	     47.54916038	      0.00000000	      0.00000000
     17.93857143	     -5.70953263	     -4.23042799	      4.18447815	      1.01838854	      0.92581475	      0.47668677	     20.25217238	      0.76537522	    -18.18827576	     18.10314834	     18.10314834	      6.31008664	      1.06483667	     -3.41120252	     18.45842240	    -10.64782853	     -0.32593308	     60.00905583	     60.00905583	      6.07287741	    -16.11226289	      1.49563944	    -10.78195886	      5.84154803	      3.09018829	     -2.98446834	    -13.20500288	     -5.60217575	     29.37202622	     46.01009162	      0.00000000	      0.00000000	     10.00698081	    -12.56993255	     -0.92705567	     70.16226555	     47.48553366	      0.00000000	      0.00000000
     17.95028571	     -5.75490904	     -4.39283393	      4.54847259	      1.01756755	      0.92651473	      0.47814800	     19.46891920	      1.05656664	    -18.70095768	     17.51576932	     17.51576932	      6.44398831	      1.53942669	     -3.82828555	     21.13750461	    -10.67947998	      0.75799562	     63.24818811	     63.24818811	      6.37936063	    -16.21783380	      4.54549897	    -10.72444571	      6.05265579	      3.61594084	     -1.04736487	    -13.54934433	     -4.77578256	     29.55338035	     45.97257359	      0.00000000	      0.00000000	     10.45466757	    -11.48496531	     -0.66607634	     63.73679101	     47.37381686	      0.00000000	      0.00000000
     17.96200000	     -5.74534193	     -4.64344445	      4.85523106	      1.01658702	      0.92710108	      0.47965064	     18.74214696	      1.47645130	    -18.98220324	     17.08684009	     17.08684009	      6.69057245	      1.68278350	     -3.86184461	     23.65392390	    -10.82051690	      1.68034529	     65.88403555	     65.88403555	      5.92486715	    -16.59602339	      4.63481794	    -10.92568342	      6.30457824	      3.85162296	      1.02856976	    -13.86577589	     -4.79748359	     30.40193533	     45.95791327	      0.00000000	      0.00000000	      9.15850228	    -11.10115454	     -0.24520143	     62.03861281	     47.30567305	      0.00000000	      0.00000000
     17.97371429	     -5.80986915	     -4.79662779	      5.18869517	      1.01564010	      0.92778234	      0.48102211	     17.95306994	      1.82481894	    -19.32653174	     16.38490599	     16.38490599	      6.80022717	      1.90564328	     -4.17859210	     26.18752449	    -10.78247991	      2.50959762	     68.08960337	     68.08960337	      6.49291309	    -16.51847477	      6.59495356	    -10.82582085	      6.47265551	      4.32183416	      3.27261464	    -14.14549621	     -4.19613563	     30.42986207	     45.94570170	      0.00000000	      0.00000000	      9.72015568	    -10.31733074	      0.29996276	     54.90702825	     47.17032886	      0.00000000	      0.00000000
     17.98542857	     -5.77148974	     -4.94237230	      5.44471842	      1.01461653	      0.92845151	      0.48235020	     17.14036609	      2.18211577	    -19.50394491	     15.83578915	     15.83578915	      7.01626065	      2.05556212	     -4.29756767	     28.50647141	    -10.77586148	      3.12643781	     69.77702379	     69.77702379	      6.68488235	    -16.65448758	      7.11371021	    -10.97022816	      6.60351762	      4.47256849	      5.54764577	    -14.44176248	     -4.07657497	     31.04379057	     45.93884273	      0.00000000	      0.00000000	      9.19466824	     -9.86664231	      0.78916955	     50.80864170	     47.07269854	      0.00000000	      0.00000000
     17.99714286	     -5.74395383	     -4.95144499	      5.53919466	      1.01362095	      0.92908005	      0.48365050	     16.44153271	      2.38554198	    -19.56077454	     15.51128765	     15.51128765	      7.33741872	      2.15317244	     -4.33550177	     30.60491661	    -10.71692476	      3.37664517	     70.85808756	     70.85808756	      6.76254066	    -16.87075692	      6.94170594	    -11.16289110	      6.53592150	      5.17970255	      7.65866435	    -14.93990684	     -4.16075527	     31.82393493	     45.93099552	      0.00000000	      0.00000000	      7.86151407	     -9.43855110	      1.05236644	     49.56492577	     47.02061962	      0.00000000	      0.00000000
     18.00885714	     -5.77040055	     -5.06276112	      5.80932940	      1.01253700	      0.92979776	      0.48478958	     15.60911421	      2.72593511	    -19.73686225	     14.76238422	     14.76238422	      7.43149066	      2.42350863	     -4.36089321	     32.74858342	    -10.59435227	      3.87938857	     71.47944332	     71.47944332	      7.09147866	    -16.94839156	      7.34189148	    -11.13791927	      6.64167076	      5.11799053	     10.38460161	    -14.99293075	     -3.73150219	     31.66257534	     45.94022481	      0.00000000	      0.00000000	      8.22855439	     -8.96872420	      1.43472237	     42.16004829	     46.91019803	      0.00000000	      0.00000000
     18.02057143	     -5.78627446	     -5.11403667	      5.95941771	      1.01148540	      0.93032927	      0.48584449	     14.87140782	      2.99333071	    -19.77899558	     14.24609455	     14.24609455	      7.69774532	      2.56740774	     -4.32827875	     34.69710698	    -10.47985549	      4.11930489	     71.61230855	     71.61230855	      7.26479325	    -17.19757902	      7.34918067	    -11.24547883	      6.63498505	      5.16800191	     12.78055787	    -15.16942086	     -3.80474236	     32.69325349	     45.92343200	      0.00000000	      0.00000000	      6.82178973	     -8.87035488	      1.63989169	     40.12916696	     46.85288715	      0.00000000	      0.00000000
     18.03228571	     -5.74847947	     -5.02450145	      6.04963425	      1.01046597	      0.93103616	      0.48676590	     14.07980419	      3.10153538	    -19.77709507	     13.76987078	     13.76987078	      7.95029136	      2.79542145	     -4.32130254	     36.35829021	    -10.26573863	      4.13407871	     71.22320103	     71.22320103	      7.60047003	    -17.37355943	      7.88831159	    -11.34790466	      6.48770597	      5.57772522	     15.34243625	    -15.48085933	     -3.35087582	     32.72519584	     45.92022088	      0.00000000	      0.00000000	      6.87978936	     -8.32891694	      1.80774714	     34.51679506	     46.78970807	      0.00000000	      0.00000000
     18.04400000	     -5.74223273	     -4.98285376	      6.14470656	      1.00945880	      0.93157274	      0.48758739	     13.30683134	      3.27110287	    -19.72991085	     13.24589693	     13.24589693	      8.19043538	      2.93050936	     -4.25053086	     37.91215546	    -10.08618236	      4.13065402	     70.39958320	     70.39958320	      7.76107597	    -17.63535111	      8.17116927	    -11.48043598	      6.38357228	      5.54139894	     17.79398049	    -15.57981753	     -3.37190446	     33.92268978	     45.89318700	      0.00000000	      0.00000000	      5.39463056	     -8.33578015	      1.89961623	     32.62938521	     46.74354165	      0.00000000	      0.00000000
     18.05571429	     -5.75338469	     -4.92148250	      6.19956156	      1.00845621	      0.93199981	      0.48828025	     12.59308269	      3.39000118	    -19.69736720	     12.81715041	     12.81715041	      8.46553745	      3.12918145	     -4.20688002	     39.32844792	     -9.90153995	      4.03126013	     69.21442091	     69.21442091	      8.14982559	    -17.78984757	      9.21477664	    -11.52754299	      6.25924558	      5.82811474	     20.23473852	    -15.90407230	     -2.72826291	     34.57673513	     45.85066104	      0.00000000	      0.00000000	      4.84061732	     -8.01085938	      1.91850292	     28.71941722	     46.70836763	      0.00000000	      0.00000000
